<?xml version="1.0" encoding="UTF-8" standalone="no"?>
<svg
   width="256"
   height="256"
   viewBox="0 0 67.733332 67.733333"
   version="1.1"
   id="svg"
   sodipodi:docname="favicon.svg"
   inkscape:version="1.4 (e7c3feb1, 2024-10-09)"
   xmlns:inkscape="http://www.inkscape.org/namespaces/inkscape"
   xmlns:sodipodi="http://sodipodi.sourceforge.net/DTD/sodipodi-0.dtd"
   xmlns="http://www.w3.org/2000/svg"
   xmlns:svg="http://www.w3.org/2000/svg">
  <defs
     id="defs1" />
  <sodipodi:namedview
     id="namedview1"
     pagecolor="#ffffff"
     bordercolor="#999999"
     borderopacity="1"
     inkscape:showpageshadow="2"
     inkscape:pageopacity="0"
     inkscape:pagecheckerboard="0"
     inkscape:deskcolor="#d1d1d1"
     inkscape:zoom="3.2326497"
     inkscape:cx="112.91047"
     inkscape:cy="132.70847"
     inkscape:window-width="1728"
     inkscape:window-height="1257"
     inkscape:window-x="64"
     inkscape:window-y="44"
     inkscape:window-maximized="0"
     inkscape:current-layer="svg" />
  <g
     id="g1"
     transform="matrix(2.1444945,0,0,2.1444945,-39.275083,-39.018775)">
    <path
       style="fill:#8dc549;fill-opacity:1"
       d="m 36.324372,24.276824 v -3.61531 l 1.55002,-0.11003 c 0.8525,-0.0605 2.567,-0.11002 3.81,-0.11002 h 2.25998 l -0.002,3.09033 c -10e-4,1.69969 -0.0491,3.37609 -0.10682,3.72534 l -0.10496,0.635 h -3.70318 -3.70318 z"
       id="path4" />
    <path
       style="fill:#61bb61;fill-opacity:1"
       d="m 24.640373,24.252524 v -3.97827 l 2.836333,0.0902 c 1.559984,0.0496 3.312584,0.13142 3.894667,0.18175 l 1.058329,0.0915 v 3.68572 3.68573 l -2.158996,0.11011 c -1.18745,0.0606 -2.94005,0.11042 -3.894666,0.1108 l -1.735667,6.8e-4 z"
       id="path3" />
    <path
       style="fill:#85ccaa;fill-opacity:1"
       d="m 24.97904,40.084124 c 0,-4.00474 0.05715,-7.28364 0.127,-7.28646 0.06985,-0.003 1.27,-0.11996 2.667,-0.2603 1.397,-0.14035 3.065378,-0.30147 3.707508,-0.35805 l 1.167504,-0.10287 -0.10044,0.4055 c -0.0553,0.22303 -0.17554,0.90081 -0.26732,1.50618 -0.09178,0.60536 -0.214347,1.74836 -0.272371,2.54 l -0.105498,1.43933 0.263447,4.48733 c 0.144892,2.46804 0.263532,4.58259 0.263642,4.699 l 1.9e-4,0.21167 H 28.704373 24.97904 Z"
       id="path2" />
    <path
       style="fill:#13a89e;fill-opacity:1"
       d="m 36.318332,46.833864 c -0.003,-0.59239 -0.0768,-1.83908 -0.16319,-2.77041 -0.0864,-0.93133 -0.24105,-2.71047 -0.3436,-3.95365 l -0.18646,-2.26032 0.44965,-2.48101 c 0.24731,-1.36456 0.5053,-2.53976 0.57331,-2.61155 0.068,-0.0718 1.71846,-0.10989 3.66766,-0.0847 l 3.544,0.0459 -10e-4,2.54 c -8e-4,1.397 -0.0216,3.6068 -0.0463,4.91066 -0.0247,1.30387 0.006,3.48347 0.0677,4.84355 l 0.11259,2.47287 -0.15095,0.0898 c -0.083,0.0494 -1.80829,0.1452 -3.83394,0.21287 l -3.683,0.12304 z"
       id="path1" />
  </g>
</svg>
